HIERARCHY
ROOT Pelvis
{
	OFFSET 0.000000 0.000000 0.000000
	CHANNELS 6 Xposition Yposition Zposition Xrotation Yrotation Zrotation
	JOINT LeftUpLeg_virtual
	{
		OFFSET 0.000000 0.000000 0.000000
		CHANNELS 3 Xrotation Yrotation Zrotation
		JOINT LeftUpLeg
		{
			OFFSET 18.735201 -5.666702 -4.541200
			CHANNELS 3 Xrotation Yrotation Zrotation
			JOINT LeftLeg
			{
				OFFSET -0.021200 -31.938179 0.493100
				CHANNELS 3 Xrotation Yrotation Zrotation
				JOINT LeftFoot
				{
					OFFSET 0.021200 -31.938179 -4.336299
					CHANNELS 3 Xrotation Yrotation Zrotation
					JOINT LeftToeBase
					{
						OFFSET 0.943001 -26.722000 15.023500
						CHANNELS 3 Xrotation Yrotation Zrotation
						End Site
						{
							OFFSET 0 0 0
						}
					}
				}
			}
		}
	}
	JOINT RightUpLeg_virtual
	{
		OFFSET 0.000000 0.000000 0.000000
		CHANNELS 3 Xrotation Yrotation Zrotation
		JOINT RightUpLeg
		{
			OFFSET -18.735201 -5.666702 -4.541200
			CHANNELS 3 Xrotation Yrotation Zrotation
			JOINT RightLeg
			{
				OFFSET 0.018946 -31.938133 0.493100
				CHANNELS 3 Xrotation Yrotation Zrotation
				JOINT RightFoot
				{
					OFFSET -0.018946 -31.938126 -4.336299
					CHANNELS 3 Xrotation Yrotation Zrotation
					JOINT RightToeBase
					{
						OFFSET -0.943001 -26.722004 15.023500
						CHANNELS 3 Xrotation Yrotation Zrotation
						End Site
						{
							OFFSET 0 0 0
						}
					}
				}
			}
		}
	}
	JOINT Hips_virtual
	{
		OFFSET 0.000000 0.000000 0.000000
		CHANNELS 3 Xrotation Yrotation Zrotation
		JOINT Hips
		{
			OFFSET -0.000000 -0.000000 -0.000000
			CHANNELS 3 Xrotation Yrotation Zrotation
			JOINT Spine
			{
				OFFSET 0.000000 10.199997 -0.299500
				CHANNELS 3 Xrotation Yrotation Zrotation
				JOINT Spine1
				{
					OFFSET 0.000000 11.900002 -1.516600
					CHANNELS 3 Xrotation Yrotation Zrotation
					JOINT Spine2
					{
						OFFSET 0.000000 13.600006 -2.842500
						CHANNELS 3 Xrotation Yrotation Zrotation
						JOINT Neck_virtual
						{
							OFFSET 0.000000 0.000000 0.000000
							CHANNELS 3 Xrotation Yrotation Zrotation
							JOINT Neck
							{
								OFFSET 0.000000 9.624100 -2.890100
								CHANNELS 3 Xrotation Yrotation Zrotation
								JOINT Head
								{
									OFFSET 0.000000 14.068802 -1.351900
									CHANNELS 3 Xrotation Yrotation Zrotation
									End Site
									{
										OFFSET 0 0 0
									}
								}
							}
						}
						JOINT LeftShoulder_virtual
						{
							OFFSET 0.000000 0.000000 0.000000
							CHANNELS 3 Xrotation Yrotation Zrotation
							JOINT LeftShoulder
							{
								OFFSET 15.263000 10.923401 -0.547700
								CHANNELS 3 Xrotation Yrotation Zrotation
								JOINT LeftArm
								{
									OFFSET 25.438599 -2.830597 -13.032500
									CHANNELS 3 Xrotation Yrotation Zrotation
									JOINT LeftForeArm
									{
										OFFSET 29.960503 0.000000 0.000000
										CHANNELS 3 Xrotation Yrotation Zrotation
										JOINT LeftHand
										{
											OFFSET 27.849251 0.000000 0.000000
											CHANNELS 3 Xrotation Yrotation Zrotation
											End Site
											{
												OFFSET 0 0 0
											}
										}
									}
								}
							}
						}
						JOINT RightShoulder_virtual
						{
							OFFSET 0.000000 0.000000 0.000000
							CHANNELS 3 Xrotation Yrotation Zrotation
							JOINT RightShoulder
							{
								OFFSET -15.263000 10.923401 -0.547700
								CHANNELS 3 Xrotation Yrotation Zrotation
								JOINT RightArm
								{
									OFFSET -25.438599 -2.830597 -13.032500
									CHANNELS 3 Xrotation Yrotation Zrotation
									JOINT RightForeArm
									{
										OFFSET -29.960503 0.000000 0.000000
										CHANNELS 3 Xrotation Yrotation Zrotation
										JOINT RightHand
										{
											OFFSET -27.849251 0.000000 0.000000
											CHANNELS 3 Xrotation Yrotation Zrotation
											End Site
											{
												OFFSET 0 0 0
											}
										}
									}
								}
							}
						}
					}
				}
			}
		}
	}
}
MOTION
Frames: 9
Frame Time: 0.03333333
5.432083 89.823074 -9.816444 0.000000 0.000000 0.000000 -117.784591 -80.914246 -146.557336 -55.833617 7.019029 2.227710 45.578645 -6.221392 -1.925485 -9.912867 -4.601050 -12.154819 0.000000 0.000000 0.000000 -6.925496 50.457715 41.155025 -45.624885 -4.399069 -2.329570 38.689159 -4.130030 1.405929 -14.272317 -8.398005 10.828334 0.000000 0.000000 0.000000 1.516885 19.506708 1.208185 -161.429677 15.817958 165.802050 12.353375 -3.201160 -0.240914 6.285735 -1.380433 -0.972581 0.000000 0.000000 0.000000 5.459829 0.047954 -1.322634 0.561414 0.149902 -0.527684 0.000000 0.000000 0.000000 11.147094 0.463777 -0.886378 6.104610 -7.255063 -6.249645 0.187872 -6.091779 -44.512794 4.054629 -32.735266 -1.389487 0.000000 0.000000 0.000000 6.574659 -0.789686 -0.210657 3.032475 0.524251 2.714736 -11.411661 -1.861534 51.852054 -7.123317 50.033530 10.947130 0.000000 0.000000 0.000000 
5.305323 88.615417 -9.520786 0.000000 0.000000 0.000000 -29.888129 -84.919127 -62.821225 -52.353820 9.613346 4.859458 43.418478 -5.837561 -1.901900 -11.201868 -4.229677 -11.853538 0.000000 0.000000 0.000000 -13.274561 63.722359 44.624133 -43.916125 -1.328725 -2.182397 35.591774 -4.335878 2.089734 -16.427846 -9.126506 11.631998 0.000000 0.000000 0.000000 -0.497161 25.032003 0.083311 -164.951445 16.424937 171.814802 12.573663 -3.026680 -0.621663 6.548939 -1.026634 -0.854204 0.000000 0.000000 0.000000 5.442922 -0.393616 -1.640421 0.573291 0.031333 -0.501988 0.000000 0.000000 0.000000 11.385383 0.499355 -1.197536 6.959619 -6.617921 -7.084561 -1.145572 -1.754524 -44.857097 3.772561 -28.492805 -1.659219 0.000000 0.000000 0.000000 6.737897 -0.757485 -0.750014 3.567052 -0.308858 0.970173 -11.147771 -2.538969 48.274373 -7.645850 50.691475 10.743576 0.000000 0.000000 0.000000 
2.741727 89.430801 -8.942818 0.000000 0.000000 0.000000 20.243533 -61.121881 -17.207101 -50.334075 13.781332 10.906951 40.864482 -7.107953 -2.006245 -13.255998 -5.125360 -12.726972 0.000000 0.000000 0.000000 -23.136487 74.718813 44.860761 -43.919090 4.108672 -4.739971 33.162064 -4.816355 2.088252 -17.946638 -9.688140 11.248368 0.000000 0.000000 0.000000 3.601354 27.016369 -0.136682 -171.653623 29.661213 179.552874 14.496638 -3.293433 -0.741149 6.722777 -1.101262 -0.461919 0.000000 0.000000 0.000000 6.336097 -0.431233 -1.324302 0.699924 0.081900 -0.368683 0.000000 0.000000 0.000000 11.899079 0.697493 -1.299775 6.868019 -8.205563 -7.712195 -1.858699 -0.755421 -43.693403 3.811366 -26.257815 -1.374032 0.000000 0.000000 0.000000 7.380346 -0.551982 -0.992341 4.176210 -1.172686 -0.287601 -11.270230 -1.345115 47.756170 -8.760133 51.803454 11.125038 0.000000 0.000000 0.000000 
0.916608 87.522987 -9.025105 0.000000 0.000000 0.000000 45.911965 36.090528 -39.074112 -34.003506 32.901455 11.874947 39.655088 0.361855 -3.679694 -10.426164 2.212741 -10.685347 0.000000 0.000000 0.000000 -161.921956 77.493646 170.829315 -39.616921 19.553493 -4.018237 25.944171 0.668792 2.368535 -22.206111 -5.193104 14.765529 0.000000 0.000000 0.000000 3.680657 50.011110 -0.784103 -169.424003 62.297281 -179.649480 12.672073 -1.100665 -1.209435 6.688505 0.316374 -1.255740 0.000000 0.000000 0.000000 5.688049 -0.804000 -1.413560 0.408973 -0.229170 -0.375625 0.000000 0.000000 0.000000 11.962344 0.165977 -2.031938 5.620037 -9.947663 -9.589141 -2.705276 0.023840 -42.712919 3.444417 -26.181980 -1.174672 0.000000 0.000000 0.000000 7.739580 -0.459734 -1.448160 3.701439 -2.564389 -1.132469 -9.517500 -4.463359 44.287254 -7.247986 48.556494 9.340826 0.000000 0.000000 0.000000 
1.549477 86.653282 -6.348114 0.000000 0.000000 0.000000 51.602048 43.191620 -44.281612 -32.150872 35.017775 12.028941 38.341912 -0.130701 -4.051029 -11.236477 1.968898 -11.595872 0.000000 0.000000 0.000000 -172.758447 73.657429 178.675536 -38.568924 23.759409 -5.764150 28.798092 1.636792 1.562567 -19.767203 -3.565553 14.204722 0.000000 0.000000 0.000000 9.786954 58.556728 -5.855380 -179.652458 62.867698 -172.449012 13.538331 -0.396007 -1.872374 6.350895 0.513313 -1.120726 0.000000 0.000000 0.000000 6.035666 -0.831377 -1.746675 0.180444 -0.174364 -0.414478 0.000000 0.000000 0.000000 11.812844 -0.059705 -2.250773 4.742198 -9.849131 -10.126255 -0.904728 -0.441685 -41.129835 4.226558 -26.444763 -0.699652 0.000000 0.000000 0.000000 7.776790 -0.107590 -1.751203 3.757621 -1.100622 -3.004333 -7.795542 -4.243372 42.331849 -7.636271 50.598465 9.773699 0.000000 0.000000 0.000000 
0.514975 87.509651 -3.689228 0.000000 0.000000 0.000000 61.073093 51.487049 -54.448895 -32.694528 37.846355 12.973129 39.005223 -1.163037 -5.055428 -10.895679 1.466184 -13.759420 0.000000 0.000000 0.000000 -178.817139 72.745927 -176.650412 -36.881731 25.637410 -7.913431 33.155873 1.795916 1.098309 -16.366723 -2.829488 13.780063 0.000000 0.000000 0.000000 4.978336 48.882496 -3.747969 159.166207 71.840934 -158.445075 12.671691 -1.855405 -1.950648 7.100025 0.266074 -1.344620 0.000000 0.000000 0.000000 5.581425 -1.420194 -2.037204 0.390555 -0.753341 -0.538090 0.000000 0.000000 0.000000 12.046350 0.518839 -2.356151 5.163813 -8.875005 -9.232811 -1.157423 0.088497 -42.537735 4.700806 -26.937108 -1.073361 0.000000 0.000000 0.000000 7.594454 0.125475 -2.149309 3.134709 -0.851727 -4.891289 -6.994515 -2.617907 40.149273 -4.665011 47.931908 7.470655 0.000000 0.000000 0.000000 
-0.628744 86.846481 -3.994934 0.000000 0.000000 0.000000 70.781817 56.874371 -64.274744 -31.028060 40.353205 12.815533 38.237298 -1.340587 -5.653864 -12.114743 1.698108 -14.632367 0.000000 0.000000 0.000000 -175.018803 72.097626 178.358041 -39.240974 26.595807 -6.116565 34.524690 2.992497 1.489811 -15.618054 -1.828918 15.221864 0.000000 0.000000 0.000000 7.879397 50.325298 -5.041584 146.888245 73.416993 -144.564232 12.020001 -0.954670 -1.915671 7.342925 -0.087834 -1.370474 0.000000 0.000000 0.000000 5.356905 -1.580073 -1.913800 0.197619 -0.984640 -0.476908 0.000000 0.000000 0.000000 12.183341 0.640007 -2.300072 4.977278 -10.383079 -8.884420 0.565369 1.301592 -39.201656 5.164337 -25.466070 -0.249359 0.000000 0.000000 0.000000 7.943451 0.625225 -2.305751 3.180973 -0.501460 -5.795857 -6.159305 -2.125864 35.516840 -2.869598 45.970110 5.049874 0.000000 0.000000 0.000000 
-0.184341 85.426804 -4.058041 0.000000 0.000000 0.000000 68.228160 61.391161 -61.249701 -33.329178 39.080129 16.615987 39.463095 -1.257376 -5.624153 -11.624264 1.784504 -14.500305 0.000000 0.000000 0.000000 -172.881759 72.663104 174.898113 -41.086890 26.907778 -5.501837 39.031256 3.778822 0.516883 -12.454363 -0.189660 14.453365 0.000000 0.000000 0.000000 9.018742 48.680773 -6.028481 133.446132 76.006721 -132.431030 12.377623 -1.598875 -1.668075 6.951627 -0.423163 -1.683602 0.000000 0.000000 0.000000 5.095596 -1.597058 -1.837945 -0.068183 -1.112973 -0.292719 0.000000 0.000000 0.000000 11.929399 0.099348 -2.234841 4.100671 -11.208386 -8.503243 1.645280 2.336756 -40.438251 5.093933 -27.050363 -0.230739 0.000000 0.000000 0.000000 8.512674 0.786286 -2.331521 2.575421 -0.820589 -4.873857 -6.005296 -5.016723 33.573563 -3.111237 44.856263 4.764926 0.000000 0.000000 0.000000 
-0.013255 83.342522 -3.660011 0.000000 0.000000 0.000000 69.199590 64.342711 -62.152529 -35.082167 38.756669 18.898804 41.975354 -1.157602 -6.210227 -10.401230 2.140789 -15.182300 0.000000 0.000000 0.000000 -169.026924 74.080983 169.930571 -43.128758 26.509636 -4.739904 41.258157 3.614258 -0.034774 -10.782143 0.129666 13.597972 0.000000 0.000000 0.000000 11.161756 48.631022 -6.921639 116.191203 75.907219 -116.202473 12.721240 -1.696063 -1.940091 7.396701 -0.413844 -1.671966 0.000000 0.000000 0.000000 5.437412 -1.247389 -2.126078 0.023223 -1.070508 -0.451214 0.000000 0.000000 0.000000 12.029342 0.425970 -2.276015 4.081931 -11.300518 -8.167237 3.360024 1.660986 -39.426355 5.865450 -26.987966 0.098847 0.000000 0.000000 0.000000 9.095689 1.179097 -2.319045 3.119067 0.353820 -5.058304 -6.586221 -3.964167 33.071243 -2.858159 43.427138 4.542114 0.000000 0.000000 0.000000 
